name Walk2.mot
datacolumns 19
datarows 30
range 3.51600000 3.54500000
endheader

                time	   L_ground_force_vx	   L_ground_force_vy	   L_ground_force_vz	   L_ground_force_px	   L_ground_force_py	   L_ground_force_pz	   R_ground_force_vx	   R_ground_force_vy	   R_ground_force_vz	   R_ground_force_px	   R_ground_force_py	   R_ground_force_pz	   L_ground_torque_x	   L_ground_torque_y	   L_ground_torque_z	   R_ground_torque_x	   R_ground_torque_y	   R_ground_torque_z	
          3.51600000	          0.00000000	          0.00000000	          0.00000000	          0.00000000	          0.00000000	          0.00000000	         27.31289391	        651.78870032	         34.90099152	         -0.35636191	          0.00000000	         -0.00019877	          0.00000000	          0.00000000	          0.00000000	          0.00000000	          0.21973060	          0.00000000	
          3.51700000	          0.00000000	          0.00000000	          0.00000000	          0.00000000	          0.00000000	          0.00000000	         27.66005849	        652.69789879	         34.95202060	         -0.35612985	          0.00000000	         -0.00033994	          0.00000000	          0.00000000	          0.00000000	          0.00000000	          0.22356406	          0.00000000	
          3.51800000	          0.00000000	          0.00000000	          0.00000000	          0.00000000	          0.00000000	          0.00000000	         27.99683757	        653.53153498	         34.99660141	         -0.35591783	          0.00000000	         -0.00053059	          0.00000000	          0.00000000	          0.00000000	          0.00000000	          0.22563171	          0.00000000	
          3.51900000	          0.00000000	          0.00000000	          0.00000000	          0.00000000	          0.00000000	          0.00000000	         28.32492216	        654.36990487	         35.02925921	         -0.35569295	          0.00000000	         -0.00073889	          0.00000000	          0.00000000	          0.00000000	          0.00000000	          0.22567016	          0.00000000	
          3.52000000	          0.00000000	          0.00000000	          0.00000000	          0.00000000	          0.00000000	          0.00000000	         28.65045306	        655.29238130	         35.04935460	         -0.35543458	          0.00000000	         -0.00092249	          0.00000000	          0.00000000	          0.00000000	          0.00000000	          0.22965870	          0.00000000	
          3.52100000	          0.00000000	          0.00000000	          0.00000000	          0.00000000	          0.00000000	          0.00000000	         28.97503244	        656.32451815	         35.06524755	         -0.35514150	          0.00000000	         -0.00105902	          0.00000000	          0.00000000	          0.00000000	          0.00000000	          0.24523998	          0.00000000	
          3.52200000	          0.00000000	          0.00000000	          0.00000000	          0.00000000	          0.00000000	          0.00000000	         29.29891988	        657.43955596	         35.09405269	         -0.35482413	          0.00000000	         -0.00114067	          0.00000000	          0.00000000	          0.00000000	          0.00000000	          0.26958718	          0.00000000	
          3.52300000	          0.00000000	          0.00000000	          0.00000000	          0.00000000	          0.00000000	          0.00000000	         29.62768805	        658.59923186	         35.14745995	         -0.35449849	          0.00000000	         -0.00116607	          0.00000000	          0.00000000	          0.00000000	          0.00000000	          0.28827687	          0.00000000	
          3.52400000	          0.00000000	          0.00000000	          0.00000000	          0.00000000	          0.00000000	          0.00000000	         29.96357130	        659.77314044	         35.22382948	         -0.35417886	          0.00000000	         -0.00115409	          0.00000000	          0.00000000	          0.00000000	          0.00000000	          0.29019275	          0.00000000	
          3.52500000	          0.00000000	          0.00000000	          0.00000000	          0.00000000	          0.00000000	          0.00000000	         30.30168813	        660.95650067	         35.31730634	         -0.35386706	          0.00000000	         -0.00114565	          0.00000000	          0.00000000	          0.00000000	          0.00000000	          0.27935955	          0.00000000	
          3.52600000	          0.00000000	          0.00000000	          0.00000000	          0.00000000	          0.00000000	          0.00000000	         30.64195698	        662.17618022	         35.42460281	         -0.35355484	          0.00000000	         -0.00117507	          0.00000000	          0.00000000	          0.00000000	          0.00000000	          0.26860565	          0.00000000	
          3.52700000	          0.00000000	          0.00000000	          0.00000000	          0.00000000	          0.00000000	          0.00000000	         30.98931432	        663.43474521	         35.54136115	         -0.35323732	          0.00000000	         -0.00124262	          0.00000000	          0.00000000	          0.00000000	          0.00000000	          0.26534137	          0.00000000	
          3.52800000	          0.00000000	          0.00000000	          0.00000000	          0.00000000	          0.00000000	          0.00000000	         31.34540370	        664.66942015	         35.65976123	         -0.35291252	          0.00000000	         -0.00131817	          0.00000000	          0.00000000	          0.00000000	          0.00000000	          0.26648745	          0.00000000	
          3.52900000	          0.00000000	          0.00000000	          0.00000000	          0.00000000	          0.00000000	          0.00000000	         31.71199902	        665.79884306	         35.77059543	         -0.35257099	          0.00000000	         -0.00136821	          0.00000000	          0.00000000	          0.00000000	          0.00000000	          0.26586439	          0.00000000	
          3.53000000	          0.00000000	          0.00000000	          0.00000000	          0.00000000	          0.00000000	          0.00000000	         32.09242289	        666.78961762	         35.86786758	         -0.35219549	          0.00000000	         -0.00138273	          0.00000000	          0.00000000	          0.00000000	          0.00000000	          0.26365661	          0.00000000	
          3.53100000	          0.00000000	          0.00000000	          0.00000000	          0.00000000	          0.00000000	          0.00000000	         32.48281507	        667.67096480	         35.95264904	         -0.35177377	          0.00000000	         -0.00137578	          0.00000000	          0.00000000	          0.00000000	          0.00000000	          0.26542708	          0.00000000	
          3.53200000	          0.00000000	          0.00000000	          0.00000000	          0.00000000	          0.00000000	          0.00000000	         32.86930244	        668.50817196	         36.03152701	         -0.35131867	          0.00000000	         -0.00135963	          0.00000000	          0.00000000	          0.00000000	          0.00000000	          0.27354842	          0.00000000	
          3.53300000	          0.00000000	          0.00000000	          0.00000000	          0.00000000	          0.00000000	          0.00000000	         33.23744115	        669.36688920	         36.11318110	         -0.35087199	          0.00000000	         -0.00133132	          0.00000000	          0.00000000	          0.00000000	          0.00000000	          0.28342724	          0.00000000	
          3.53400000	          0.00000000	          0.00000000	          0.00000000	          0.00000000	          0.00000000	          0.00000000	         33.58375787	        670.29476538	         36.20671352	         -0.35047733	          0.00000000	         -0.00129161	          0.00000000	          0.00000000	          0.00000000	          0.00000000	          0.28779936	          0.00000000	
          3.53500000	          0.00000000	          0.00000000	          0.00000000	          0.00000000	          0.00000000	          0.00000000	         33.91867933	        671.30697611	         36.31631281	         -0.35015431	          0.00000000	         -0.00126630	          0.00000000	          0.00000000	          0.00000000	          0.00000000	          0.28347482	          0.00000000	
          3.53600000	          0.00000000	          0.00000000	          0.00000000	          0.00000000	          0.00000000	          0.00000000	         34.25712402	        672.36241734	         36.43335892	         -0.34989483	          0.00000000	         -0.00129631	          0.00000000	          0.00000000	          0.00000000	          0.00000000	          0.27362821	          0.00000000	
          3.53700000	          0.00000000	          0.00000000	          0.00000000	          0.00000000	          0.00000000	          0.00000000	         34.60798732	        673.39099425	         36.54072842	         -0.34966691	          0.00000000	         -0.00140265	          0.00000000	          0.00000000	          0.00000000	          0.00000000	          0.26375114	          0.00000000	
          3.53800000	          0.00000000	          0.00000000	          0.00000000	          0.00000000	          0.00000000	          0.00000000	         34.97305671	        674.35418853	         36.62595509	         -0.34942954	          0.00000000	         -0.00156185	          0.00000000	          0.00000000	          0.00000000	          0.00000000	          0.25582506	          0.00000000	
          3.53900000	          0.00000000	          0.00000000	          0.00000000	          0.00000000	          0.00000000	          0.00000000	         35.34799055	        675.25964708	         36.68537056	         -0.34915506	          0.00000000	         -0.00172689	          0.00000000	          0.00000000	          0.00000000	          0.00000000	          0.24689195	          0.00000000	
          3.54000000	          0.00000000	          0.00000000	          0.00000000	          0.00000000	          0.00000000	          0.00000000	         35.72541198	        676.14575674	         36.72330095	         -0.34883308	          0.00000000	         -0.00186977	          0.00000000	          0.00000000	          0.00000000	          0.00000000	          0.23491160	          0.00000000	
          3.54100000	          0.00000000	          0.00000000	          0.00000000	          0.00000000	          0.00000000	          0.00000000	         36.10287779	        677.05103161	         36.75197109	         -0.34846074	          0.00000000	         -0.00198545	          0.00000000	          0.00000000	          0.00000000	          0.00000000	          0.22465585	          0.00000000	
          3.54200000	          0.00000000	          0.00000000	          0.00000000	          0.00000000	          0.00000000	          0.00000000	         36.48271974	        677.98428656	         36.78508237	         -0.34804116	          0.00000000	         -0.00206811	          0.00000000	          0.00000000	          0.00000000	          0.00000000	          0.22271786	          0.00000000	
          3.54300000	          0.00000000	          0.00000000	          0.00000000	          0.00000000	          0.00000000	          0.00000000	         36.86420329	        678.93849460	         36.82930562	         -0.34758691	          0.00000000	         -0.00210882	          0.00000000	          0.00000000	          0.00000000	          0.00000000	          0.22873661	          0.00000000	
          3.54400000	          0.00000000	          0.00000000	          0.00000000	          0.00000000	          0.00000000	          0.00000000	         37.24143127	        679.91243669	         36.88144146	         -0.34711612	          0.00000000	         -0.00211010	          0.00000000	          0.00000000	          0.00000000	          0.00000000	          0.23754038	          0.00000000	
          3.54500000	          0.00000000	          0.00000000	          0.00000000	          0.00000000	          0.00000000	          0.00000000	         37.60776029	        680.90722946	         36.93346139	         -0.34664751	          0.00000000	         -0.00209265	          0.00000000	          0.00000000	          0.00000000	          0.00000000	          0.24486267	          0.00000000	
